<svg version="1.2" baseProfile="tiny" xmlns="http://www.w3.org/2000/svg" width="50" height="50" viewBox="0 0 50 50" overflow="inherit"><path d="M35.01 25.542c-.328-1.293-1.974-2.314-3.21-1.716L27 26v-8.584l8.433-13.243c.612-.967.376-2.25-.61-2.87-.972-.608-2.24-.325-2.786.62L24.97 13.18l-4.26.01c-.274 0-.545.044-.82.152l-7.365 2.87-3.795-5.716c-.624-.956-1.914-1.24-2.887-.62s-1.257 1.912-.633 2.88l4.736 7.126c.536.826 1.662 1.195 2.613.804L18 18.59V28l-7.397 16.387c-.558 1.25.054 2.625 1.356 3.354 1.3.73 2.8.305 3.34-.944l5.952-13.582c.524.152 1.093.22 1.673.22.536 0 1.06-.1 1.53-.273l6.682-3.107L32.6 35.91c.327 1.303 1.657 2.097 2.97 1.77 1.313-.325 2.1-1.64 1.77-2.944l-2.33-9.194zM29 22.088v1.553C39 18.624 42.878 1.436 42.878 0h-1.4C40.955 3.585 37 17.926 29 22.088zm-7.092-9.658c2.046 0 3.708-1.64 3.708-3.672 0-2.03-1.662-3.684-3.708-3.684-2.046 0-3.708 1.652-3.708 3.684s1.662 3.672 3.708 3.672zM25 50h2V33.432L25 35z"/></svg>