<svg version="1.2" baseProfile="tiny" xmlns="http://www.w3.org/2000/svg" width="50" height="50" viewBox="0 0 50 50" overflow="inherit"><path d="M48.05 36.31c.522.17.95-.142.95-.692v-3.494c0-.55-.387-1.23-.86-1.512L29.86 19.717c-.473-.28-.86-.962-.86-1.51V6c0-.55-.168-1.417-.374-1.928 0 0-1.09-2.708-3-3.01-.204-.036-.41-.062-.62-.062h-.01c-.24-.002-.478.028-.712.072l-.216.048-.328.102c-1.588.53-2.406 2.835-2.406 2.835C21.15 4.577 21 5.45 21 6v12.206c0 .55-.387 1.23-.86 1.512L1.86 30.612c-.473.282-.86.962-.86 1.512v3.494c0 .55.428.86.95.69l18.1-5.874c.522-.17.95.142.95.692v9.533c0 .55-.36 1.27-.8 1.6l-2.4 1.802c-.44.33-.8 1.05-.8 1.6V48c0 .55.433.876.96.724l6.076-1.745c.528-.153 1.394-.153 1.922 0l6.08 1.744c.53.152.962-.174.962-.724v-2.338c0-.55-.36-1.27-.8-1.6l-2.4-1.803c-.44-.33-.8-1.052-.8-1.602v-9.533c0-.55.428-.86.95-.69l18.1 5.875z"/></svg>