<svg version="1.2" baseProfile="tiny" xmlns="http://www.w3.org/2000/svg" width="50" height="50" viewBox="0 0 50 50" overflow="inherit"><path d="M39.922 28.087c.463.227 1.027.223 1.253-.01.23-.234.03-.602-.438-.818l-8.178-3.79c-.47-.217-1.258-.272-1.75-.124l-2.925.877c-.497.15-1.145.27-1.44.27-.293 0-.538-.413-.538-.92v-8.92c0-.507.423-.923.94-.923h21.21c.52 0 .942-.415.942-.923V9.812c0-.508-.408-1.042-.903-1.187L25.762 2.108c-.495-.145-1.307-.145-1.802.002L1.9 8.624c-.495.145-.9.68-.9 1.188v2.994c0 .508.423.923.94.923h20.93c.518 0 .94.415.94.922v8.924c0 .507-.422.923-.94.924h-.38c-.518 0-1.244-.29-1.616-.643l-5.046-4.82c-.373-.354-1.1-.643-1.617-.643h-2.333c-.516 0-1.14-.305-1.382-.676-.24-.372-.803-.674-1.248-.674s-.582.348-.302.776l.044.067c.28.427.28 1.13.005 1.56L6.47 23.37c-.273.43-.188 1.06.197 1.402l.18.16c.384.34 1.07.43 1.53.192l2.703-1.407c.46-.238 1.06-.083 1.34.344l2.967 4.543c.28.428.187 1.048-.208 1.376L13.82 31.11c-.395.328-.625 1-.51 1.498l1.758 7.652c.114.497.62.8 1.12.675l1.224-.302c.503-.126.82-.632.71-1.128l-1.192-5.175c-.114-.495.2-1.013.702-1.146l3.007-.806c.5-.134 1.332-.24 1.85-.24h.38c.518 0 .94.414.94.92v9.176c0 .506-.422.92-.94.92H1.94c-.517 0-.94.415-.94.925v2.993c0 .513.423.927.94.927h45.728c.518 0 .94-.414.94-.925v-2.992c0-.51-.423-.924-.94-.924h-20.82c-.518 0-.94-.416-.94-.922V33.06c0-.504.423-.92.94-.92h1.085c.518 0 1.345.108 1.848.242l3.008.806c.502.133.818.65.702 1.146l-1.188 5.175c-.116.495.202 1 .705 1.127l1.225.302c.503.124 1.004-.18 1.12-.676l1.76-7.652c.118-.497-.104-1.16-.487-1.482-.382-.318-.72-.996-.75-1.502l-.152-2.707c-.03-.505.326-.734.79-.506l3.41 1.673z"/></svg>