<svg version="1.2" baseProfile="tiny" xmlns="http://www.w3.org/2000/svg" width="50" height="50" viewBox="0 0 50 50" overflow="inherit"><path d="M1 6.38s2.257 4 2.257 6.557l-2.244 6.355c0 .594.4.796.876.456l7.382-5.296c1.49 1.1 4.412 2.562 6.533 3.762V22.5l4.735-2.696c1.52.345 3.062.564 4.713.564 9.95 0 18.026-6.455 18.026-7.53 0-.936-6.075-5.934-14.202-7.224L20.042 1v4.987c-4.236 1.174-8.57 3.61-10.77 5.234l-7.41-5.295C1.39 5.585 1 5.787 1 6.38m34.25 7.767c-1.17 0-2.12-.963-2.12-2.153s.95-2.152 2.12-2.152c1.174 0 2.12.962 2.12 2.152s-.946 2.153-2.12 2.153M49 32.88c0-.595-.39-.798-.863-.456l-7.374 5.298c-2.2-1.625-6.49-4.06-10.73-5.233V27.5l-9.073 4.613c-8.13 1.29-14.22 6.29-14.22 7.224 0 1.076 8.068 7.534 18.016 7.534 1.65 0 3.23-.223 4.747-.57l4.77 2.7v-4.285c2.118-1.203 5.005-2.662 6.49-3.767l7.363 5.297c.48.345.87.14.87-.45 0 0-2.25-3.8-2.25-6.358C46.75 36.88 49 32.88 49 32.88m-32.785 6.388c-1.172 0-2.12-.96-2.12-2.153 0-1.188.948-2.148 2.12-2.148 1.17 0 2.12.96 2.12 2.148 0 1.192-.95 2.153-2.12 2.153"/></svg>