<svg version="1.2" baseProfile="tiny" xmlns="http://www.w3.org/2000/svg" width="50" height="50" viewBox="0 0 50 50" overflow="inherit"><path d="M18.855 10.597c2.242 0 4.04-1.854 4.04-4.138 0-2.286-1.798-4.14-4.04-4.14-2.225 0-4.042 1.854-4.042 4.14 0 2.283 1.817 4.137 4.042 4.137zM20 12H8c-2 0-2 3 0 3h12c2 0 2-3 0-3zm19 1.254c0-4.587-1.605-8.97-4.53-12.422C34.483.82 33.732 0 33.732 0l-11.38 11.648-.194.192.108.146c.175.32.272.674.312 1.028.012.146 0 .297-.017.448-.02.308-.08.61-.208.896l-.012.03-.073.173-.074.147c-.5.786-1.356 1.293-2.396 1.293H13v16l-2.187 15.233c-.24 1.255.717 2.476 1.943 2.72C13.982 50.21 15.75 49.268 16 48l2-17h1l3.39 17.128c.25 1.268 2.002 2.082 3.24 1.825 1.215-.244 1.893-1.465 1.654-2.72L24 30.97V17.356l9.326 9.135s.953-.825.953-.836c2.91-3.45 4.72-7.833 4.72-12.402zM36.94 15c-.335 3-2.083 6.628-4.274 9.282C30.64 22.215 26 18.322 24 15.772V15h12.94zm0-3H23.9c2.395-3 6.873-7.033 9.168-9.375C35.27 5.275 36.617 8 36.94 12z"/></svg>