<svg version="1.2" baseProfile="tiny" xmlns="http://www.w3.org/2000/svg" width="50" height="50" viewBox="0 0 50 50" overflow="inherit"><path d="M21.21 6C8.58 6 1 16.133 1 21.2s2.526 8.867 7.58 8.867 7.58 1.266 7.58 5.066C16.16 40.2 19.947 44 25 44c16.423 0 24-8.867 24-17.733C49 11.067 36.367 6 21.21 6zm-3.157 5.067c1.744 0 3.158 1.418 3.158 3.166 0 1.75-1.413 3.167-3.157 3.167s-3.158-1.418-3.158-3.167c0-1.748 1.414-3.166 3.158-3.166zm10.104 0c1.744 0 3.158 1.418 3.158 3.166 0 1.75-1.414 3.167-3.158 3.167-1.743 0-3.157-1.418-3.157-3.167 0-1.748 1.414-3.166 3.157-3.166zm10.106 5.066c1.745 0 3.16 1.417 3.16 3.167 0 1.75-1.415 3.166-3.16 3.166-1.744 0-3.157-1.417-3.157-3.166 0-1.75 1.413-3.167 3.157-3.167zM9.21 18.667c1.745 0 3.158 1.417 3.158 3.165 0 1.75-1.414 3.167-3.157 3.167s-3.157-1.42-3.157-3.168c0-1.748 1.414-3.165 3.158-3.165zM25 31.333c2.093 0 3.79 1.7 3.79 3.8 0 2.1-1.697 3.8-3.79 3.8s-3.79-1.7-3.79-3.8c0-2.1 1.697-3.8 3.79-3.8z"/></svg>