<svg version="1.2" baseProfile="tiny" xmlns="http://www.w3.org/2000/svg" width="50" height="50" viewBox="0 0 50 50" overflow="inherit"><path d="M24.064 15h.966c5.4 0 8.504 5.27 8.525 8.753-.02.678-.19 1.32-.956 1.304-1.62.015-1.042-2.69-2.38-4.903C29.59 19.062 27.562 17 25.25 17h-.85c-1.24 0-3.572.825-5.137 3.184-1.96 2.842-.672 4.987-2.317 4.977-.252.012-.977-.146-.966-1.324C16.054 18.49 20.955 15 24.064 15zm.736 30c2.027 0 3.2-2.257 3.2-3.67v-2.94c0-6.01 6.504-8.383 6.482-14.403.02-5.64-4.975-9.895-9.786-9.885C20.704 14.092 18.03 16.666 17 18c-3.09 3.818-1.288 7.458-3.472 7.458-.62 0-1.217-.352-1.227-1.586-.095-5.977 4.84-12.302 12.608-12.312 6.266.01 12.36 5 12.36 12.654 0 7.09-6.27 8.578-6.27 14.796v2.658c0 2.736-2.38 5.86-6.38 5.878-.147-.043-.283-.095-.472-.116-.735-.22-1.234-.882-1.055-1.638.213-.657.838-.792 1.658-.792h.052zM44.61 1h-2.847L32.07 11.626c1.02.527 1.96 1.28 2.796 2.075 1.38 1.31 2.207 2.95 2.834 4.717L49 7.13V1h-4.39zM1 49h9.077l13.547-14.697-8.093-5.392L1 44.165V49z"/></svg>