<svg version="1.2" baseProfile="tiny" xmlns="http://www.w3.org/2000/svg" width="50" height="50" viewBox="0 0 50 50" overflow="inherit"><path d="M41.405 21.888l-2.46-10.266c-.43-1.79-2.245-2.916-4.046-2.474-1.585.387-2.355 1.484-2.667 2.256-.37.91-2.016 5.04-2.4 5.892-.136.296-.42.452-.48.478-.326.145-3.6 1.526-3.6 1.526v.006c-.645.303-1.093.95-1.093 1.703 0 1.042.854 1.888 1.907 1.888.227 0 .443-.047.646-.12v.008l4.345-1.806c.596-.278.887-.63 1.183-1.143.125-.216.502-1.12.81-1.862l2.62 10.965-.002 16.99c-.005 1.688 1.16 3.064 2.865 3.07 1.706.006 2.94-1.357 2.95-3.048L42 25.9c-.002-.944-.377-3.185-.595-4.012z"/><ellipse cx="31.899" cy="4.82" rx="3.855" ry="3.82"/><path d="M17.13 37.102v4.28c.556-.102 1.005-.356 1.354-.763.346-.408.52-.884.52-1.432 0-.49-.146-.913-.436-1.27-.294-.35-.773-.623-1.437-.816zm-2.643-6.647c-.26.35-.39.738-.39 1.162 0 .39.118.748.353 1.08.238.334.597.604 1.074.808v-3.797c-.435.146-.782.396-1.037.747zm10.17-5.084h.004l-5.974-11.986v.01c-.44-.907-1.372-1.534-2.456-1.534h-5.507C9.22 11.86 8 13.067 8 14.557V49h16.966V26.723c-.002-.484-.113-.942-.31-1.352zm-4.152 16.77c-.81.907-1.934 1.463-3.37 1.667v2.053h-1.608v-1.998c-1.278-.153-2.313-.626-3.113-1.415-.796-.79-1.305-1.906-1.526-3.347l2.89-.31c.117.587.338 1.092.665 1.518.323.424.685.73 1.083.92v-4.597c-1.446-.41-2.51-1.03-3.182-1.857-.677-.83-1.015-1.837-1.015-3.023 0-1.2.38-2.208 1.147-3.025.764-.815 1.78-1.286 3.05-1.41V26.23h1.607v1.086c1.172.138 2.107.535 2.8 1.19.693.652 1.136 1.53 1.33 2.628l-2.802.362c-.17-.862-.613-1.45-1.328-1.756v4.29c1.77.477 2.978 1.093 3.62 1.85.642.757.964 1.728.964 2.913 0 1.324-.404 2.44-1.213 3.347z"/></svg>