<svg version="1.2" baseProfile="tiny" xmlns="http://www.w3.org/2000/svg" width="50" height="50" viewBox="0 0 50 50" overflow="inherit"><path d="M25.776 20H25v9h.776c2.383 0 4.3-2.124 4.3-4.507 0-2.37-1.917-4.493-4.3-4.493zM40 7H10C4.5 7 0 11.5 0 17v14c0 5.5 4.5 10 10 10h30c5.5 0 10-4.5 10-10V17c0-5.5-4.5-10-10-10zM20 32h-4v-2h-5.89l-1.37 2H3.548l11.61-16H20v16zm7 0h-6V16h5.253c4.46 0 8 3.627 8 8.1 0 4.46-2.792 7.9-7.253 7.9zm8.76 0h-1.38c1.783-2 2.798-4.774 2.798-7.597 0-3.177-1.284-6.403-3.532-8.403h1.994c2.003 3 3.128 5.287 3.128 8.403 0 2.773-.88 5.597-2.494 7.597h-.514zm4.08 0H38.45c1.796-2 2.81-4.774 2.81-7.597 0-3.177-1.295-6.403-3.543-8.403h1.992c2.005 3 3.142 5.287 3.142 8.403 0 2.773-.894 5.597-2.507 7.597h-.502zm4.584 0h-1.907c1.796-2 2.81-4.774 2.81-7.597 0-3.177-1.295-6.403-3.543-8.403h1.992c2.005 3 3.142 5.287 3.142 8.403 0 2.774-.894 5.597-2.494 7.597zM16 27v-5.903L12.334 27z"/></svg>