<svg version="1.2" baseProfile="tiny" xmlns="http://www.w3.org/2000/svg" width="50" height="50" viewBox="0 0 50 50" overflow="inherit"><path d="M37.833 14.812c.333 5.205-2.192 8.854-2.192 8.854.33-4.01-1.296-9.55-1.296-9.55-1.388-.272-3.606.02-3.606.02.32 4.324-1.88 8.1-3.503 9.49.803-4.795-.475-8.423-.475-8.423-2.197-.554-5.346-.215-5.346-.215.684 5.1-2.13 8.854-2.13 8.854.466-3.556-1.434-8.117-1.434-8.117-1.613-.105-4.183.42-4.183.42 1.355 2.42.273 7.742.273 7.742-.74-4.35-3.223-6.917-3.223-6.917C-3.527 23.036.225 31.393 7.19 33.882c6.57 2.344 27.744 3.5 37.217-.61 9.474-4.113 2.803-15.668-6.574-18.46z"/></svg>