<svg version="1.2" baseProfile="tiny" xmlns="http://www.w3.org/2000/svg" width="50" height="50" viewBox="0 0 50 50" overflow="inherit"><path d="M34.682 25.8c-1.438-1.133-3.596-2.04-6.474-2.716L26 22.564v-9.43l.3.12c1.873.95 2.88 2.746 3.018 4.746h7.516c-.137-4-1.615-6.958-4.434-9.048-1.873-1.39-4.01-2.282-6.4-2.732V1h-7v5.06c-3.237.4-5.804 1.442-7.69 3.136-2.467 2.218-3.7 5.002-3.7 8.354 0 3.673 1.26 6.373 3.783 8.1 1.412.98 3.957 1.888 7.607 2.73v10.216c-1.33-.367-2.374-.97-3.11-1.844-.708-.848-1.183-1.752-1.425-3.752H7c0 4 1.41 6.87 4.234 9.096 2.038 1.606 4.632 2.582 7.766 3.005V49h7v-3.833c3.333-.4 6.024-1.463 8.062-3.204 2.643-2.26 3.965-5.1 3.965-8.52 0-3.334-1.115-5.88-3.345-7.642zm-18.014-5.816c-1.215-.66-1.822-1.662-1.822-3 0-1.456.616-2.597 1.848-3.41.65-.428 1.424-.74 2.306-.946v8.224c-1.085-.316-1.868-.606-2.332-.868zM27.143 38.39c-.347.12-.734.22-1.143.307V30c1.205.357 2.156.746 2.848 1.164 1.092.677 1.64 1.64 1.64 2.875-.002 2.115-1.117 3.572-3.345 4.35z"/></svg>