<svg version="1.2" baseProfile="tiny" xmlns="http://www.w3.org/2000/svg" width="50" height="50" viewBox="0 0 50 50" overflow="inherit"><path d="M29.334 13.61c1.897 0 3.44-1.69 3.44-3.765 0-2.077-1.543-3.765-3.44-3.765-1.9 0-3.445 1.688-3.445 3.765 0 2.076 1.544 3.764 3.444 3.764zM38.88 46.48L34 30V17c0-1.766-2.006-2-2.006-2h-6.562s-.863.495-1.432 1l-3.23 1.48-3.987-4.434c-.65-.844-1.797-1-2.57-.29-.78.71-.82 1.98-.172 2.835l5.085 5.556c.347.4.823.668 1.36.668.397 0-.19-.14.115-.37L24 20v10l-5.176 16.45c-.376 1.488.912 3.02 2.28 3.42 1.363.4 3.004-.488 3.37-1.977l4.597-14.78 4.623 14.814c.363 1.498 1.895 2.376 3.256 1.976 1.36-.398 2.304-1.932 1.93-3.42zM13.138 17.474c.172.194.467.2.65 0l.06-.056c.175-.2.185-.522 0-.716l-.994-1.116c-.184-.2-.48-.2-.662-.005l-.05.062c-.18.2-.192.517-.01.71l1.007 1.122zm9.52-12.637l-5.874 6.946.713.794 6.555-6.18 4.36-4.392c.173-.21.283-.488.283-.79 0-.665-.488-1.21-1.087-1.215-.294-.005-.548.117-.75.306l-4.198 4.53z"/></svg>