<svg version="1.2" baseProfile="tiny" xmlns="http://www.w3.org/2000/svg" width="50" height="50" viewBox="0 0 50 50" overflow="inherit"><path d="M34.78 6.664h-6.95c-1.256.004-1.21 1.876 0 1.865h6.95v.956h-6.95c-1.25-.01-1.203 1.86 0 1.865h6.95v.98h-6.95c-1.25 0-1.203 1.87 0 1.864h6.95v.932h-6.95c-1.223.01-1.203 1.88 0 1.887h6.95v.934h-6.95c-1.223-.004-1.228 1.865 0 1.865h6.95v.932h-6.95c-1.223.004-1.228 1.875 0 1.866h6.95v.955h-6.95c-1.223-.01-1.228 1.858 0 1.865h6.95v.93h-6.95c-1.223 0-1.203 1.872 0 1.866h6.95v18.16c.005 2.766 4.208 2.716 4.22 0V3.89c-.012-1.264-1.05-2.862-2.758-2.867H27.83c-1.256 0-1.21 1.873 0 1.865l6.95.023v.93h-6.95c-1.254-.005-1.207 1.866 0 1.867h6.95v.957zm-7.428 32.194C27.348 35.628 24 32.154 20 34.404V22.05L17.413 1.675c-.054-.54-.51-.666-.818-.675-.317.01-.952.136-1.02.675L13 22.05v12.354c-4-2.25-7.24 1.246-7.24 4.43 0 2.83 2.18 5.157 5.13 5.15 2.972.007 5.11-2.6 5.11-5.15V26h1v12.833c0 2.856 2.212 4.97 4.67 5.104-.04 1.566.47 3.8 1.432 4.686 1.128 1.04 2.47-.29 1.92-1.373-.532-1.008-1.054-1.605-.63-3.806 1.772-.82 2.956-2.546 2.96-4.586zm-16.348 2.54c-1.396-.008-2.524-1.14-2.526-2.54.002-1.4 1.13-2.536 2.526-2.544 1.386.008 2.515 1.145 2.525 2.544-.01 1.4-1.14 2.533-2.526 2.54zm8.57-2.54c.01-1.4 1.137-2.536 2.527-2.544 1.393.008 2.522 1.145 2.526 2.544-.004 1.4-1.132 2.532-2.525 2.54-1.39-.007-2.517-1.14-2.525-2.54z"/></svg>