<svg version="1.2" baseProfile="tiny" xmlns="http://www.w3.org/2000/svg" width="50" height="50" viewBox="0 0 50 50" overflow="inherit"><path d="M40.91 22.65c-1.267 0-2.47.26-3.563.728l-3.076-5.27 2.32-3.974c.314-.542.13-1.238-.41-1.555-.238-.14-.503-.39-.754-.348L35.23 12H30.68c-.627 0-1.136.873-1.136 1.5 0 .628.51 1.5 1.136 1.5h2.947L32.3 17H19.024l2.652-5h1.05c.628 0 1.137-.372 1.137-1s-.51-1-1.136-1h-5.683c-.626 0-1.136.372-1.136 1s.51 1 1.136 1h2l-6.39 11.165c-1.094-.467-2.3-.62-3.564-.62C4.07 22.545 0 26.67 0 31.69c0 5.02 4.07 9.116 9.09 9.116s9.092-4.057 9.092-9.078c0-2.94-1.402-5.54-3.57-7.204l2.433-4.166 6.974 11.956.026.038.03.045.023.034.09.105.01.013.03.028.033.026.088.07.038.024.03.02.01.006.005.004.096.047.01.005.023.012.008.002.074.026.068.022.014.004.025.004.045.01.204.02v.062l.004.06h6.89c.563 4 4.38 7.894 9.014 7.894 5.02 0 9.09-4.1 9.09-9.122.002-5.02-4.068-9.12-9.09-9.12zm-25 9.092c0 3.767-3.053 6.82-6.82 6.82-3.765 0-6.817-3.054-6.817-6.82 0-3.765 3.052-6.817 6.818-6.817.848 0 1.656.16 2.404.444l-3.385 5.8c-.317.542-.133 1.238.41 1.556.18.104.376.154.57.154.39 0 .77-.202.983-.563l3.386-5.806c1.495 1.252 2.45 3.13 2.45 5.232zM25 29.244L19.024 19h11.953L25 29.244zm7.954-8.685l2.434 4.267C33.506 26.27 32.206 28 31.896 31h-4.918l5.976-10.44zm3.587 6.344L38.933 31h-4.738c.274-2 1.126-3.075 2.347-4.096zm4.37 11.72c-3.378 0-6.176-2.624-6.717-5.624h6.713l.005-.06.204-.052.046-.023.19-.066.02-.017.113-.058.027-.02.1-.074.08-.065.075-.083.068-.085.057-.092.052-.095.04-.104.03-.104.017-.104.012-.123.003-.035-.005-.064-.014-.124-.023-.106-.033-.104-.052-.113-.027-.06-3.384-5.802c.75-.283 1.557-.444 2.403-.444 3.766 0 6.818 3.083 6.818 6.848 0 3.767-3.052 6.85-6.82 6.85z"/></svg>